<svg width="41" height="41" viewBox="0 0 41 41" fill="none" xmlns="http://www.w3.org/2000/svg">
<circle cx="20.928" cy="20.2188" r="20" fill="white"/>
<path d="M25.0467 14.8951H14.0367C13.4867 14.8951 13.0367 15.3451 13.0367 15.8951C13.0367 16.4451 13.4867 16.8951 14.0367 16.8951H25.0467V18.6851C25.0467 19.1351 25.5867 19.3551 25.8967 19.0351L28.6767 16.2451C28.8667 16.0451 28.8667 15.7351 28.6767 15.5351L25.8967 12.7451C25.5867 12.4251 25.0467 12.6551 25.0467 13.0951V14.8951Z" fill="#3284FF"/>
<path d="M16.8092 25.5424H27.8192C28.3692 25.5424 28.8192 25.0924 28.8192 24.5424C28.8192 23.9924 28.3692 23.5424 27.8192 23.5424H16.8092V21.7524C16.8092 21.3024 16.2692 21.0824 15.9592 21.4024L13.1792 24.1924C12.9892 24.3924 12.9892 24.7024 13.1792 24.9024L15.9592 27.6924C16.2692 28.0124 16.8092 27.7824 16.8092 27.3424V25.5424Z" fill="#3284FF"/>
</svg>
