<svg width="27" height="27" viewBox="0 0 27 27" fill="none" xmlns="http://www.w3.org/2000/svg">
<path d="M1.19547 1.02597C1.6117 0.609737 2.28655 0.609737 2.70278 1.02597L26.3172 24.6404C26.7334 25.0566 26.7334 25.7314 26.3172 26.1477C25.901 26.5639 25.2261 26.5639 24.8099 26.1477L1.19547 2.53327C0.779243 2.11704 0.779244 1.4422 1.19547 1.02597Z" fill="#555555"/>
<path d="M1.19547 26.1477C0.779243 25.7314 0.779243 25.0566 1.19547 24.6404L24.8099 1.02597C25.2261 0.609737 25.901 0.609738 26.3172 1.02597C26.7334 1.4422 26.7334 2.11704 26.3172 2.53327L2.70278 26.1477C2.28655 26.5639 1.6117 26.5639 1.19547 26.1477Z" fill="#555555"/>
</svg>
