<svg width="188" height="126" viewBox="0 0 188 126" fill="none" xmlns="http://www.w3.org/2000/svg">
<g opacity="0.2">
<path d="M186.821 61.626L186.592 61.4326C186.922 61.0405 187.076 60.5287 187.015 60.0196L183.741 32.585C183.655 31.8669 183.159 31.2642 182.471 31.0419C181.782 30.8204 181.027 31.0193 180.538 31.552L165.714 47.6997L165.637 47.7837L165.523 47.7953L138.432 50.5544L138.432 50.5544C137.415 50.6578 136.674 51.5668 136.778 52.5841L186.821 61.626ZM186.821 61.626L186.592 61.4326L179.545 69.7913L179.544 69.7916C179.434 69.9223 179.307 70.0371 179.164 70.1327L179.164 70.1331L167.292 78.1413L167.148 78.2379L167.16 78.4103L167.936 89.84L167.953 90.0942L168.207 90.1183L176.712 90.9282C177.407 90.9944 178.005 91.4453 178.26 92.0946L183.668 105.862L183.668 105.862C183.839 106.295 183.84 106.776 183.671 107.209L183.671 107.209L179.855 117.043C179.611 117.67 179.047 118.116 178.38 118.207C177.713 118.299 177.05 118.022 176.646 117.483L168.949 107.211L168.841 107.067L168.662 107.095L161.848 108.171L161.674 108.199L161.614 108.364L158.608 116.521L158.889 116.625L158.608 116.521C158.386 117.124 157.868 117.568 157.238 117.696L138.593 121.476C138.468 121.501 138.344 121.513 138.223 121.513C137.36 121.513 136.588 120.907 136.41 120.029L136.116 120.089L136.41 120.029C136.207 119.027 136.854 118.05 137.857 117.846L155.326 114.305L155.49 114.272L155.548 114.115L158.574 105.899C158.807 105.27 159.361 104.815 160.023 104.71L169.364 103.235C169.364 103.235 169.364 103.235 169.364 103.235C170.043 103.128 170.724 103.405 171.135 103.954L177.285 112.16L177.609 112.593L177.805 112.089L179.914 106.653L179.957 106.543L179.914 106.434L175.296 94.6788L175.229 94.5073L175.046 94.4898L166.036 93.632C165.133 93.5461 164.426 92.819 164.364 91.9141L163.381 77.4249C163.336 76.7663 163.646 76.1336 164.193 75.7642L176.844 67.2305L176.879 67.2071L176.906 67.1751L183.158 59.7597L183.242 59.6601L183.226 59.5308L180.618 37.6735L180.541 37.0252L180.099 37.5061L167.889 50.807L168.093 50.9949L167.889 50.807C167.582 51.141 167.164 51.3509 166.712 51.3968L166.712 51.3968L138.807 54.2388L138.807 54.2389M186.821 61.626L138.807 54.2389M138.807 54.2389C137.792 54.3432 136.881 53.6017 136.778 52.5841L138.807 54.2389Z" fill="#3284FF" stroke="#F2F2F2" stroke-width="0.6"/>
<path d="M121.123 121.239L121.009 121.119L104.02 103.295L104.224 103.101L104.02 103.295C103.56 102.812 102.875 102.614 102.227 102.777L102.227 102.777L89.9005 105.883L89.715 105.93L89.5944 105.782L84.0679 98.98C84.0679 98.98 84.0679 98.98 84.0679 98.98C83.7548 98.5948 83.3005 98.3514 82.8062 98.3042C82.8062 98.3042 82.8062 98.3042 82.8062 98.3042L62.1565 96.3376L62.1563 96.3375C61.6383 96.2879 61.1213 96.4598 60.7354 96.8108L60.7354 96.8109C60.3494 97.1617 60.1292 97.6592 60.1292 98.1809V102.712V102.834L60.0437 102.922L51.8748 111.274L51.4902 111.667L51.3679 111.131L48.6905 99.3874L48.6704 99.2989L48.7027 99.214L52.1701 90.1048C52.1701 90.1047 52.1701 90.1047 52.1701 90.1047C52.3501 89.6316 52.3288 89.1054 52.1109 88.6488L52.1108 88.6486C51.8931 88.1917 51.4976 87.8442 51.0167 87.6867L51.0166 87.6866L45.0592 85.7328L44.7952 85.6463L44.8613 85.3765L52.0991 55.8025L52.1285 55.6824L52.234 55.6179L65.8966 47.2594L66.0338 47.1755L66.1797 47.2433L77.7724 52.6356L77.7724 52.6356C78.6997 53.0671 79.8008 52.665 80.2322 51.7376C80.6635 50.8102 80.2616 49.7091 79.3342 49.2778L79.4608 49.0058L79.3342 49.2778L66.6955 43.399C66.6955 43.399 66.6955 43.399 66.6955 43.399C66.1334 43.1375 65.477 43.1748 64.9482 43.4982L121.123 121.239ZM121.123 121.239L121.285 121.206L128.417 119.76L128.358 119.466L128.418 119.76C129.421 119.556 130.397 120.205 130.6 121.207L130.6 121.207C130.803 122.21 130.155 123.187 129.153 123.39L120.856 125.072L121.123 121.239ZM49.545 52.9216L64.9482 43.4982L120.856 125.072C120.734 125.097 120.61 125.109 120.488 125.109C119.987 125.109 119.501 124.905 119.148 124.535L102.205 106.759L102.084 106.633L101.915 106.675L89.4748 109.81L89.4747 109.81C88.7768 109.986 88.0393 109.741 87.5853 109.182L87.3524 109.371L87.5853 109.182L81.7621 102.015L81.6829 101.918L81.5577 101.906L64.1611 100.249L63.8327 100.217V100.547V103.589C63.8327 104.073 63.6433 104.538 63.3049 104.884L63.3048 104.884L51.763 116.685C51.763 116.685 51.7629 116.685 51.7629 116.685C51.2889 117.169 50.5882 117.356 49.9361 117.172C49.2841 116.988 48.7844 116.462 48.6338 115.801L48.3413 115.868L48.6337 115.801L44.9345 99.5756C44.8532 99.2193 44.8792 98.8468 45.0093 98.5055L45.0093 98.5054L47.9064 90.8948L48.0182 90.601L47.7195 90.503L42.0117 88.6313C41.0925 88.3298 40.5599 87.3714 40.79 86.4315L40.5292 86.3676L40.79 86.4314L48.7127 54.0609C48.7127 54.0608 48.7127 54.0608 48.7127 54.0608C48.829 53.5863 49.1283 53.1767 49.545 52.9216C49.545 52.9216 49.545 52.9216 49.545 52.9216ZM129.213 123.684C130.377 123.448 131.13 122.313 130.894 121.148L118.931 124.742C119.341 125.172 119.906 125.409 120.488 125.409C120.63 125.409 120.773 125.395 120.916 125.366L129.213 123.684Z" fill="#3284FF" stroke="#F2F2F2" stroke-width="0.6"/>
<path d="M108.308 73.2204L108.713 73.5901L109.117 73.2204C115.175 67.6864 119.684 62.5819 122.682 57.9657C125.676 53.3555 127.193 49.1878 127.193 45.5399C127.193 34.3988 119.035 26.4637 108.713 26.4637C98.3903 26.4637 90.2324 34.3988 90.2324 45.5399C90.2324 49.1878 91.749 53.3555 94.7434 57.9657C97.7416 62.5819 102.25 67.6864 108.308 73.2204ZM108.713 50.304C105.766 50.304 103.353 47.8906 103.353 44.9439C103.353 41.9972 105.766 39.5838 108.713 39.5838C111.659 39.5838 114.073 41.9972 114.073 44.9439C114.073 47.8906 111.659 50.304 108.713 50.304ZM108.713 21.7036C120.916 21.7036 131.953 31.0491 131.953 45.5399C131.953 50.325 130.028 55.6095 126.093 61.4108C122.223 67.1146 116.436 73.2817 108.713 79.9144C100.989 73.2817 95.2017 67.1146 91.3327 61.4108C87.3975 55.6095 85.4723 50.325 85.4723 45.5399C85.4723 31.0491 96.5092 21.7036 108.713 21.7036Z" fill="#3284FF" stroke="#F2F2F2" stroke-width="1.2"/>
<circle opacity="0.3" cx="62.7044" cy="62.7044" r="62.7044" fill="#3284FF"/>
</g>
</svg>
