<svg width="118" height="99" viewBox="0 0 118 99" fill="none" xmlns="http://www.w3.org/2000/svg">
<g opacity="0.3">
<path d="M112.405 53.5438L98.9895 41.0891C96.1234 38.4167 92.3528 36.9264 88.4341 36.9152H81.1528V35.2572C81.1659 32.352 80.0211 29.5622 77.9728 27.5018C75.9254 25.4414 73.1413 24.2817 70.236 24.2771H50.392V13.4143C50.3781 12.6812 49.9524 12.019 49.291 11.7023L26.0723 0.305749C25.5395 0.04587 24.9164 0.04587 24.3836 0.305749L1.16304 11.6697C0.505424 11.9882 0.0844011 12.6514 0.0778809 13.3826V34.4589C0.0778809 40.5181 3.83076 47.6625 8.83926 51.0773L9.61611 51.625V86.0846C9.61611 87.1381 10.5438 87.9447 11.5973 87.9447H18.9876C19.7775 93.5186 24.4181 97.7428 30.0413 98.0065C30.223 98.0139 30.4037 98.0297 30.5844 98.0297C33.5036 98.0279 36.3166 96.9287 38.4637 94.9503C40.4635 93.1088 41.7685 90.6348 42.1588 87.9447H85.0529C85.8754 93.7115 90.8131 97.9953 96.6375 97.9953C102.462 97.9953 107.401 93.7115 108.222 87.9447H115.466C115.97 87.9568 116.457 87.7668 116.82 87.4175C117.183 87.0682 117.391 86.5885 117.398 86.0846V64.9403C117.388 60.6127 115.579 56.4844 112.405 53.5438ZM109.801 56.3279C110.024 56.5198 110.233 56.7266 110.43 56.9455H96.1113C95.9073 56.9632 95.7256 56.817 95.6986 56.6148V43.3815C95.9315 43.5491 96.1541 43.7298 96.3665 43.9236L109.801 56.3279ZM3.89317 34.4589V14.5721L25.235 4.14246L46.5767 14.6019V34.4589C46.5767 39.2076 43.3483 45.2491 39.4212 47.9252L25.2303 57.5938L11.0338 47.9261C7.10767 45.2491 3.89317 39.2085 3.89317 34.4589ZM24.1014 61.479C24.4246 61.695 24.8055 61.8106 25.194 61.8106C25.5805 61.8106 25.9587 61.695 26.2791 61.479L41.5664 51.08C46.5767 47.6634 50.392 40.5191 50.392 34.4589V28.0924H70.236C72.1297 28.0952 73.9442 28.8534 75.2771 30.1984C76.6101 31.5434 77.3515 33.3635 77.3375 35.2572V61.9531H13.4314V54.2275L24.1014 61.479ZM38.4525 86.6966C38.282 90.456 35.4802 93.5708 31.759 94.1371C28.0387 94.7035 24.4367 92.563 23.1559 89.0243C21.8742 85.4857 23.2714 81.5353 26.4915 79.5885C29.7116 77.6418 33.8594 78.2407 36.3967 81.0193C37.8126 82.5618 38.5531 84.6054 38.4525 86.6966ZM31.1023 74.6471C28.0042 74.4897 24.9704 75.5795 22.6799 77.6725C20.8207 79.3864 19.5567 81.648 19.0696 84.1294H13.4314V65.7684H77.3375V84.1294H42.0759C41.6819 81.9945 40.6899 80.0152 39.2144 78.4233C37.1242 76.13 34.2022 74.7701 31.1023 74.6471ZM96.6375 94.2275C92.2811 94.2275 88.7489 90.6954 88.7489 86.3389C88.7489 81.9824 92.2811 78.4512 96.6375 78.4512C100.994 78.4512 104.526 81.9824 104.526 86.3389C104.521 90.6935 100.992 94.2228 96.6375 94.2275ZM113.583 84.1294H108.137C107.099 78.5965 102.267 74.5875 96.6375 74.5875C91.0077 74.5875 86.1762 78.5965 85.1376 84.1294H81.1528V40.7305H88.4332C89.6096 40.7445 90.7758 40.9541 91.8833 41.3509V56.6158C91.9131 58.9249 93.8012 60.7766 96.1113 60.7608H112.796C113.297 62.0984 113.563 63.5123 113.583 64.9403V84.1294Z" fill="#3284FF"/>
<path d="M20.9586 38.2148C21.3116 38.5883 21.7969 38.8063 22.3092 38.8231H22.3139C22.8253 38.8072 23.3096 38.5911 23.6627 38.2223L35.402 26.4616C36.1509 25.7164 36.1546 24.5055 35.4103 23.7556C34.6652 23.0058 33.4533 23.003 32.7035 23.7473L22.3204 34.1285L17.7283 29.4898C16.9878 28.7409 15.7797 28.7353 15.0308 29.4758C14.2819 30.2256 14.2763 31.4384 15.0177 32.1947L20.9586 38.2148Z" fill="#3284FF"/>
</g>
</svg>
