<svg width="124" height="108" viewBox="0 0 124 108" fill="none" xmlns="http://www.w3.org/2000/svg">
<g opacity="0.3">
<path d="M110.939 17.1566H84.7939V11.1362C84.7939 5.52873 80.2598 0.834717 74.6534 0.834717H50.1433C44.4783 0.892203 39.8993 5.47124 39.8418 11.1362V17.1566H13.6971C6.6158 17.1566 0.776245 22.8896 0.776245 29.9719V94.3512C0.776245 101.435 6.6158 107.328 13.6971 107.328H110.939C118.02 107.328 123.859 101.435 123.859 94.3512V29.9719C123.859 22.8896 118.02 17.1566 110.939 17.1566ZM44.123 11.1362C44.1784 7.83445 46.8415 5.17127 50.1433 5.11587H74.6534C77.8987 5.11587 80.5128 7.88985 80.5128 11.1362V17.1566H44.123V11.1362ZM119.311 94.485C119.311 99.2135 115.477 103.047 110.748 103.047H13.6197C8.89121 103.047 5.0574 99.2135 5.0574 94.485V30.0001C5.0574 25.2716 8.89121 21.4378 13.6197 21.4378H110.748C115.477 21.4378 119.311 25.2716 119.311 30.0001V94.485Z" fill="#3284FF"/>
<path d="M62.3178 42.8359C50.484 42.8485 40.8932 52.4393 40.8796 64.2731C40.8796 65.3496 41.6782 66.2579 42.7464 66.3969C43.8135 66.5349 44.8169 65.8587 45.0908 64.8176C45.2674 64.1466 45.6667 63.1631 45.9395 62.8297C46.4579 62.3489 47.1373 62.0781 47.8449 62.0719C48.5493 62.0656 49.2277 62.3321 49.7398 62.8161C50.2394 63.3387 50.5216 64.0327 50.529 64.756C50.529 65.9381 51.4874 66.8965 52.6695 66.8965C53.8517 66.8965 54.8101 65.9381 54.8101 64.756C54.7934 64.039 55.0704 63.347 55.5773 62.8401C56.0842 62.3332 56.7772 62.0552 57.4932 62.0719C58.1976 62.0656 58.877 62.3321 59.3881 62.8161C59.8877 63.3387 60.1699 64.0327 60.1772 64.756V79.2362C60.1772 79.5352 59.9358 79.7766 59.6379 79.7766C59.339 79.7766 59.0975 79.5352 59.0975 79.2362C59.0975 78.0541 58.1391 77.0956 56.957 77.0956C55.7748 77.0956 54.8164 78.0541 54.8164 79.2362C54.8164 81.8994 56.9747 84.0578 59.6379 84.0578C62.3001 84.0578 64.4584 81.8994 64.4584 79.2362V64.756C64.4417 64.039 64.7197 63.347 65.2266 62.8401C65.7325 62.3332 66.4255 62.0552 67.1414 62.0719C67.8459 62.0656 68.5253 62.3321 69.0364 62.8161C69.536 63.3397 69.8182 64.0327 69.8255 64.756C69.8255 65.9381 70.784 66.8965 71.9661 66.8965C73.1482 66.8965 74.1067 65.9381 74.1067 64.756C74.09 64.039 74.368 63.347 74.8749 62.8401C75.3818 62.3332 76.0738 62.0552 76.7908 62.0719C77.4921 62.0656 78.1683 62.3311 78.6795 62.8108C78.9522 63.1244 79.3578 64.1173 79.5449 64.8176C79.8187 65.8587 80.8221 66.5349 81.8893 66.3969C82.9564 66.2579 83.756 65.3496 83.755 64.2731C83.7424 52.4393 74.1516 42.8485 62.3178 42.8359ZM76.7908 57.7907C75.0014 57.798 73.2799 58.4785 71.9682 59.6961C70.6606 58.4701 68.935 57.7876 67.1414 57.7907C65.3521 57.798 63.6306 58.4785 62.3199 59.6961C61.0124 58.4701 59.2857 57.7886 57.4932 57.7907C55.7038 57.798 53.9823 58.4785 52.6706 59.6961C51.3641 58.4701 49.6374 57.7886 47.8449 57.7907C47.3484 57.7907 46.854 57.844 46.3691 57.9485C48.9612 51.4108 55.2826 47.1171 62.3157 47.116C69.35 47.116 75.6714 51.4087 78.2655 57.9465C77.7806 57.843 77.2862 57.7907 76.7908 57.7907Z" fill="#3284FF"/>
<path d="M62.3177 32.124C45.0185 32.124 30.995 46.1475 30.995 63.4467C30.995 80.7459 45.0185 94.7694 62.3177 94.7694C79.6169 94.7694 93.6404 80.7459 93.6404 63.4467C93.6205 46.1559 79.6085 32.1439 62.3177 32.124ZM62.3177 90.4882C47.3828 90.4882 35.2762 78.3816 35.2762 63.4467C35.2762 48.5118 47.3828 36.4052 62.3177 36.4052C77.2526 36.4052 89.3592 48.5118 89.3592 63.4467C89.3425 78.3743 77.2453 90.4715 62.3177 90.4882Z" fill="#3284FF"/>
</g>
</svg>
