<svg width="82" height="98" viewBox="0 0 82 98" fill="none" xmlns="http://www.w3.org/2000/svg">
<g id="&#208;&#180;&#208;&#190;&#208;&#186;&#209;&#131;&#208;&#188;&#208;&#181;&#208;&#189;&#209;&#130;&#209;&#139; 1" opacity="0.3">
<g id="Group">
<g id="Group_2">
<g id="Group_3">
<path id="Vector" d="M81.2192 22.7058C81.2192 22.686 81.1994 22.6464 81.1994 22.6265C81.1994 22.5869 81.1796 22.5671 81.1796 22.5275C81.1796 22.5077 81.1598 22.4681 81.1598 22.4483C81.1598 22.4284 81.14 22.3888 81.1202 22.369C81.1004 22.3492 81.1004 22.3096 81.0806 22.2898C81.0608 22.27 81.0608 22.2303 81.041 22.2105C81.0211 22.1907 81.0211 22.1511 81.0013 22.1313C80.9815 22.0917 80.9617 22.0521 80.9221 22.0124C80.9023 21.9926 80.9023 21.9728 80.8825 21.953C80.8627 21.9134 80.823 21.8738 80.8032 21.854L64.5002 1.62455C64.4606 1.56512 64.4012 1.5255 64.3615 1.46608C64.3417 1.44627 64.3417 1.44626 64.3219 1.44626C64.2823 1.40664 64.2427 1.36703 64.2031 1.32741C64.1833 1.3076 64.1634 1.3076 64.1436 1.28779C64.104 1.26798 64.0644 1.22835 64.0248 1.20855C64.005 1.18874 63.9852 1.18875 63.9654 1.16894C63.9257 1.14913 63.8861 1.12931 63.8465 1.1095C63.8267 1.08969 63.8069 1.0897 63.7871 1.06989C63.7474 1.05008 63.7078 1.03026 63.6484 1.01045C63.6286 1.01045 63.6088 0.990648 63.589 0.990648C63.5494 0.970839 63.4899 0.970836 63.4503 0.951027C63.4305 0.951027 63.4107 0.931223 63.3909 0.931223C63.3315 0.911413 63.2918 0.911406 63.2324 0.911406C63.2126 0.911406 63.1928 0.911406 63.173 0.911406C63.0937 0.911406 63.0343 0.891602 62.9551 0.891602H10.2228C9.13327 0.891602 8.24185 1.78322 8.24185 2.87293V11.0161H2.00192C0.912414 11.0161 0.0209961 11.9077 0.0209961 12.9974V95.5794C0.0209961 96.6691 0.912414 97.5607 2.00192 97.5607H71.1759C72.2654 97.5607 73.1569 96.6691 73.1569 95.5794V87.436H79.2581C80.3476 87.436 81.239 86.5443 81.239 85.4546V23.0822C81.239 23.0227 81.239 22.9633 81.239 22.9039C81.239 22.8841 81.239 22.8643 81.239 22.8246C81.239 22.785 81.239 22.7454 81.2192 22.7058ZM64.936 8.45993L75.118 21.1008H64.936V8.45993ZM61.5486 24.3501L67.016 31.0867H56.8538V18.5646L61.2911 24.0332C61.3703 24.1521 61.4496 24.2511 61.5486 24.3501ZM12.2037 4.83404H60.9742V17.3363L56.418 11.7291C56.3784 11.6696 56.319 11.63 56.2794 11.5706C56.2595 11.5508 56.2595 11.5508 56.2397 11.531C56.2001 11.4913 56.1605 11.4715 56.1209 11.4319C56.1011 11.4121 56.0813 11.4121 56.0614 11.3923C56.0218 11.3725 55.9822 11.3329 55.9426 11.3131C55.9228 11.2933 55.903 11.2933 55.8832 11.2734C55.8435 11.2536 55.8039 11.2338 55.7643 11.214C55.7445 11.1942 55.7247 11.1942 55.7049 11.1942C55.6653 11.1744 55.6058 11.1546 55.5662 11.1348C55.5464 11.1348 55.5266 11.115 55.5068 11.115C55.4672 11.0952 55.4077 11.0952 55.3681 11.0754C55.3483 11.0754 55.3285 11.0555 55.3087 11.0555C55.2493 11.0357 55.2096 11.0357 55.1502 11.0357C55.1304 11.0357 55.1106 11.0357 55.0908 11.0357C55.0116 11.0357 54.9521 11.0159 54.8729 11.0159H12.2037V4.83404ZM3.98285 93.5978V14.9588H52.892V33.0682C52.892 34.1579 53.7834 35.0495 54.8729 35.0495H69.195V93.598H3.98285V93.5978ZM77.2772 83.4929H73.1569V83.4731V33.0482C73.1569 32.9888 73.1569 32.9294 73.1569 32.8699C73.1569 32.8501 73.1569 32.8303 73.1569 32.7907C73.1569 32.7511 73.1569 32.7115 73.1371 32.6718C73.1371 32.652 73.1172 32.6124 73.1172 32.5926C73.1172 32.553 73.0974 32.5332 73.0974 32.4935C73.0974 32.4539 73.0776 32.4341 73.0776 32.4143C73.0776 32.3945 73.0578 32.3549 73.038 32.3351C73.0182 32.3153 73.0182 32.2756 72.9984 32.2558C72.9786 32.236 72.9786 32.1964 72.9588 32.1766C72.939 32.1568 72.939 32.1172 72.9191 32.0974C72.8993 32.0577 72.8795 32.0181 72.8597 31.9983C72.8399 31.9785 72.8399 31.9587 72.8201 31.9587C72.7805 31.9191 72.7607 31.8596 72.7211 31.82L67.2537 25.0835H77.2772V83.4929Z" fill="#3284FF"/>
<path id="Vector_2" d="M56.8537 43.1531H16.3239C15.2344 43.1531 14.343 44.0447 14.343 45.1344C14.343 46.2241 15.2344 47.1157 16.3239 47.1157H56.8537C57.9432 47.1157 58.8347 46.2241 58.8347 45.1344C58.8347 44.0447 57.9432 43.1531 56.8537 43.1531Z" fill="#3284FF"/>
<path id="Vector_3" d="M56.8537 55.239H16.3239C15.2344 55.239 14.343 56.1306 14.343 57.2203C14.343 58.3101 15.2344 59.2017 16.3239 59.2017H56.8537C57.9432 59.2017 58.8347 58.3101 58.8347 57.2203C58.8347 56.1306 57.9432 55.239 56.8537 55.239Z" fill="#3284FF"/>
<path id="Vector_4" d="M56.8537 67.3254H16.3239C15.2344 67.3254 14.343 68.2171 14.343 69.3068C14.343 70.3965 15.2344 71.2881 16.3239 71.2881H56.8537C57.9432 71.2881 58.8347 70.3965 58.8347 69.3068C58.8347 68.2171 57.9432 67.3254 56.8537 67.3254Z" fill="#3284FF"/>
<path id="Vector_5" d="M56.8537 79.4114H16.3239C15.2344 79.4114 14.343 80.303 14.343 81.3927C14.343 82.4824 15.2344 83.374 16.3239 83.374H56.8537C57.9432 83.374 58.8347 82.4824 58.8347 81.3927C58.8347 80.303 57.9432 79.4114 56.8537 79.4114Z" fill="#3284FF"/>
</g>
</g>
</g>
</g>
</svg>
