<svg width="93" height="115" viewBox="0 0 93 115" fill="none" xmlns="http://www.w3.org/2000/svg">
<g opacity="0.3">
<path d="M45.3456 10.125L9.42592 27.7105C8.75172 28.0371 8.32104 28.718 8.31531 29.4667V64.3703C8.31531 72.645 13.8961 83.1715 20.7374 87.8365L45.0983 104.446C45.7658 104.899 46.6415 104.899 47.3081 104.446L71.6766 87.8374C78.5189 83.1715 84.1006 72.645 84.1006 64.3703V29.5192C84.0949 28.7715 83.6651 28.0916 82.9928 27.764L47.0751 10.126C46.5298 9.85954 45.8919 9.85954 45.3456 10.125ZM80.1891 30.7377V64.3703C80.1891 71.2632 75.1746 80.7182 69.4735 84.6049L46.2156 100.463L22.9452 84.6049C17.2451 80.7182 12.2268 71.2632 12.2268 64.3703V30.6862L46.2041 14.0604L80.1891 30.7377Z" fill="#3284FF"/>
<path d="M91.0412 22.7609L47.0884 1.18176C46.5422 0.915325 45.9033 0.915325 45.3571 1.18176L1.38134 22.7017C0.701407 23.0254 0.263082 23.7053 0.247803 24.4579V64.3702C0.247803 75.1651 7.2715 88.3874 16.1946 94.4704L45.0897 114.165C45.7591 114.619 46.6367 114.619 47.3061 114.165L76.2184 94.4714C85.1424 88.3874 92.168 75.1651 92.168 64.3702V24.5171C92.1547 23.7655 91.7182 23.0865 91.0412 22.7609ZM88.2565 64.3702C88.2565 74.0057 81.9825 85.808 74.0162 91.2398L46.2242 110.182L18.4072 91.2389C10.442 85.809 4.1593 74.0057 4.1593 64.3702V25.6773L46.2089 5.11618L88.2575 25.7346L88.2565 64.3702Z" fill="#3284FF"/>
<path d="M30.8723 50.5768C30.1121 49.809 28.8736 49.8033 28.1058 50.5635L22.547 56.0678C21.7801 56.828 21.7735 58.0656 22.5336 58.8334L39.315 75.7609C39.6827 76.1267 40.1821 76.3291 40.7007 76.3234H40.7055C41.2211 76.3301 41.7196 76.1295 42.0882 75.7686L69.8755 47.9889C70.2432 47.6232 70.4495 47.1266 70.4495 46.608C70.4495 46.0895 70.2432 45.5929 69.8755 45.2272L64.3444 39.698C63.5805 38.934 62.3419 38.934 61.5779 39.698L40.7389 60.538L30.8723 50.5768ZM62.9617 43.8501L65.7272 46.6157L40.7121 71.6307L26.6896 57.4707L29.4685 54.7185L39.3427 64.7159C39.7056 65.0931 40.2041 65.3118 40.7274 65.3223H40.7322C41.2546 65.3118 41.7511 65.0969 42.115 64.7226L62.9617 43.8501Z" fill="#3284FF"/>
</g>
</svg>
