<?xml version="1.0" standalone="no"?>
<!DOCTYPE svg PUBLIC "-//W3C//DTD SVG 20010904//EN"
 "http://www.w3.org/TR/2001/REC-SVG-20010904/DTD/svg10.dtd">
<svg version="1.0" xmlns="http://www.w3.org/2000/svg"
 width="260.000000pt" height="260.000000pt" viewBox="0 0 260.000000 260.000000"
 preserveAspectRatio="xMidYMid meet">
<metadata>
Created by potrace 1.14, written by Peter Selinger 2001-2017
</metadata>
<g transform="translate(0.000000,260.000000) scale(0.100000,-0.100000)"
fill="#000000" stroke="none">
<path d="M0 1300 l0 -1300 1300 0 1300 0 0 1300 0 1300 -1300 0 -1300 0 0
-1300z m1655 380 l80 -80 -363 0 -362 0 0 30 0 30 118 0 c64 0 188 3 275 7
l157 6 0 44 c0 23 3 43 8 43 4 0 43 -36 87 -80z m-1163 -148 c42 -70 83 -136
91 -146 13 -18 21 -8 102 127 l88 147 78 0 79 0 0 -280 0 -280 -85 0 -84 0 -3
128 -3 127 -59 -102 -60 -103 -42 0 -42 0 -59 95 -58 95 -3 -120 -3 -120 -84
0 -85 0 0 280 0 280 78 0 77 0 77 -128z m1508 32 c0 -53 4 -94 8 -92 5 2 46
45 92 96 l84 92 104 0 104 0 -61 -67 c-33 -38 -83 -93 -110 -123 -29 -31 -46
-59 -42 -65 82 -107 221 -296 221 -300 0 -3 -48 -5 -107 -5 l-108 1 -55 75
c-30 41 -63 82 -72 91 -16 14 -19 14 -37 -8 -16 -19 -20 -39 -21 -91 l0 -68
-90 0 -90 0 0 280 0 280 90 0 90 0 0 -96z m-270 17 c0 -4 -37 -44 -82 -87
l-83 -79 -3 53 -3 52 -100 0 -99 0 0 -210 0 -210 -95 0 -95 0 0 210 0 210 -80
0 -80 0 0 35 0 35 360 0 c198 0 360 -4 360 -9z m-1440 -676 c0 -57 -4 -95 -10
-95 -6 0 -10 38 -10 95 0 57 4 95 10 95 6 0 10 -38 10 -95z m431 82 c-1 -12
-15 -9 -19 4 -3 6 1 10 8 8 6 -3 11 -8 11 -12z m329 -2 c0 -8 -4 -15 -10 -15
-5 0 -10 7 -10 15 0 8 5 15 10 15 6 0 10 -7 10 -15z m-110 -30 c0 -8 10 -16
23 -16 l22 -2 -23 -4 c-21 -4 -23 -9 -20 -56 2 -41 7 -52 20 -52 9 0 20 -4 25
-8 4 -5 -8 -7 -27 -5 -35 3 -35 3 -38 58 -2 30 -9 58 -15 62 -9 6 -9 8 1 8 6
0 12 7 12 15 0 8 5 15 10 15 6 0 10 -7 10 -15z m-478 -38 c13 -21 9 -75 -8
-91 -20 -21 -73 -20 -96 1 -18 16 -24 68 -10 90 20 32 94 32 114 0z m156 10
c8 -6 12 -6 12 2 0 6 5 11 10 11 14 0 12 -120 -3 -150 -11 -22 -19 -25 -61
-25 -29 0 -51 5 -53 12 -3 9 3 9 27 0 33 -12 55 -5 74 26 15 23 4 28 -31 15
-44 -17 -83 9 -83 55 0 40 9 53 40 65 26 10 45 6 68 -11z m252 3 c0 -4 -17 -7
-37 -6 -28 1 -38 -3 -41 -16 -2 -12 8 -20 38 -28 37 -10 41 -14 38 -38 -3 -23
-8 -27 -42 -30 -21 -2 -44 2 -50 8 -8 9 -3 10 22 5 21 -4 38 -2 47 5 20 17 11
28 -36 40 -35 10 -40 14 -37 38 2 18 10 28 28 32 29 7 70 1 70 -10z m338 -9
c3 -10 0 -10 -17 -1 -27 14 -58 5 -72 -21 -23 -44 22 -91 68 -70 19 9 24 9 21
-1 -5 -15 -41 -22 -72 -14 -28 7 -48 49 -40 83 12 44 99 63 112 24z m137 9 c2
-4 -12 -7 -32 -6 -28 1 -38 -3 -41 -16 -2 -12 8 -20 38 -28 37 -10 41 -14 38
-38 -3 -24 -8 -27 -47 -30 -24 -2 -49 2 -55 8 -8 8 1 10 34 8 35 -2 45 1 48
14 2 12 -8 20 -38 28 -37 10 -41 14 -38 38 2 18 10 28 28 32 27 7 58 2 65 -10z
m-625 -55 c0 -37 -4 -65 -10 -65 -11 0 -14 113 -3 123 12 13 13 7 13 -58z
m330 0 c0 -37 -4 -65 -10 -65 -6 0 -10 28 -10 65 0 37 4 65 10 65 6 0 10 -28
10 -65z"/>
<path d="M371 911 c-40 -40 4 -106 55 -82 46 20 27 101 -23 101 -7 0 -21 -8
-32 -19z"/>
<path d="M540 910 c-19 -19 -18 -40 3 -67 22 -30 87 -1 87 39 0 19 -32 48 -53
48 -9 0 -26 -9 -37 -20z"/>
</g>
</svg>
